<svg xmlns="http://www.w3.org/2000/svg" xmlns:xlink="http://www.w3.org/1999/xlink" width="1920" height="726" viewBox="0 0 1920 726">
  <defs>
    <linearGradient id="linear-gradient" x1="1.03" y1="1.469" x2="0.5" gradientUnits="objectBoundingBox">
      <stop offset="0" stop-color="#d5e9ff"/>
      <stop offset="1" stop-color="#fcfdfd" stop-opacity="0"/>
    </linearGradient>
    <clipPath id="clip-path">
      <rect id="Rectangle_145" data-name="Rectangle 145" width="1920" height="726" transform="translate(0 -0.031)" fill="#fff" stroke="#707070" stroke-width="1"/>
    </clipPath>
    <linearGradient id="linear-gradient-2" x1="0.5" y1="1" x2="0.5" y2="0.572" gradientUnits="objectBoundingBox">
      <stop offset="0" stop-color="#f5f3ef"/>
      <stop offset="1" stop-color="#f5f3ef" stop-opacity="0"/>
    </linearGradient>
    <linearGradient id="linear-gradient-3" x1="0.5" y1="1" x2="0.5" gradientUnits="objectBoundingBox">
      <stop offset="0" stop-color="#f8ebcf"/>
      <stop offset="0.22" stop-color="#f8ebcf" stop-opacity="0"/>
      <stop offset="1" stop-color="#f8ebcf" stop-opacity="0"/>
    </linearGradient>
    <clipPath id="clip-path-2">
      <rect id="Rectangle_144" data-name="Rectangle 144" width="1922.835" height="911.955" fill="url(#linear-gradient)"/>
    </clipPath>
  </defs>
  <g id="Mask_Group_7" data-name="Mask Group 7" transform="translate(0 0.031)" clip-path="url(#clip-path)">
    <g id="Group_122" data-name="Group 122" transform="translate(-20.68 -1051.376)">
      <rect id="Rectangle_143" data-name="Rectangle 143" width="1942" height="1871.734" transform="translate(20.68 0)" fill="url(#linear-gradient-2)"/>
      <g id="Group_121" data-name="Group 121" transform="translate(0 905.656)">
        <path id="Path_131" data-name="Path 131" d="M1952.489,897.74h-34.031l-23.137,19.486,12.338,10.391h-14.09l-5.293-4.458-5.292,4.458h-11.336V925.3l9.583-8.071-9.583-8.07V897.74h-13.556l-9.582-8.07-9.582,8.07h-13.554v11.416l-9.582,8.07,9.582,8.071v2.321h-11.334l-5.292-4.457-5.293,4.457h-14.091l12.339-10.391-23.137-19.486h-34.031v12.274l-13.672,7.169,13.672,8.445v1.989H1730.9l-8.347-5.155-.039.04-.381-.26L1715.2,927.1v.518h-16.987l15.545-11.1-38.067-26.026-29.606,20.1-9.524,6.838,10.643,7.079.006-.007.266.188.27.179v.011l3.877,2.738h-15.817l-7.432-4.945-9.43,4.945H1606.16v-3.179l13.673-7.17-13.673-8.444V897.74h-34.031l-23.137,19.486,12.338,10.391h-14.091l-5.292-4.458-5.293,4.458h-11.335V925.3l9.582-8.071-9.582-8.07V897.74h-13.555l-9.582-8.07-9.582,8.07h-13.555v11.416l-9.583,8.07,9.583,8.071v2.321H1467.71l-5.292-4.457-5.293,4.457h-14.09l12.338-10.391-23.138-19.486H1398.2v12.274l-13.673,7.169,13.673,8.445v1.989h-13.628l-8.347-5.155-.039.04-.38-.26-6.937,4.857v.518h-16.987l15.545-11.1-38.067-26.026-29.6,20.1-9.524,6.839,10.642,7.079.006-.007.265.187.271.18v.011l3.876,2.738h-15.817l-7.432-4.945-9.428,4.945H1259.83v-3.179l13.673-7.17-13.673-8.444V897.74H1225.8l-23.136,19.486L1215,927.617h-14.09l-5.293-4.458-5.292,4.458h-11.336V925.3l9.582-8.071-9.582-8.07V897.74h-13.554l-9.582-8.07-9.582,8.07h-13.556v11.416l-9.582,8.07,9.582,8.071v2.321h-11.336l-5.292-4.457-5.292,4.457H1096.7l12.338-10.391L1085.9,897.74h-34.03v12.274l-13.674,7.169,13.674,8.445v1.989h-13.629l-8.347-5.155-.039.04-.38-.261-6.937,4.857v.518h-16.987l15.545-11.1-38.067-26.026-29.587,20.09-9.541,6.85,10.641,7.078.007-.006.249.176.287.191v.012l3.876,2.737H943.15l-7.433-4.945-9.428,4.945H913.5v-3.179l13.673-7.17L913.5,908.824V897.74H879.469l-23.138,19.486,12.339,10.391H854.579l-5.292-4.458-5.293,4.458H832.659V925.3l9.583-8.071-9.583-8.07V897.74H819.1l-9.583-8.07-9.582,8.07H786.385v11.416l-9.582,8.07,9.582,8.071v2.321H775.05l-5.292-4.457-5.292,4.457H750.374l12.338-10.391L739.575,897.74H705.544v12.274l-13.673,7.169,13.673,8.445v1.989H691.916l-8.347-5.155-.038.04-.381-.261-6.937,4.857v.518H659.227l15.545-11.1-38.067-26.026-29.6,20.1-9.524,6.839,10.642,7.078.005-.006.241.171.3.2v.012l3.876,2.737H596.82l-7.433-4.945-9.429,4.945H567.171v-3.179l13.673-7.17-13.673-8.444V897.74H533.14L510,917.226l12.338,10.391h-14.09l-5.293-4.458-5.292,4.458H486.33V925.3l9.582-8.071-9.582-8.07V897.74H472.776l-9.583-8.07-9.582,8.07H440.056v11.416l-9.582,8.07,9.582,8.071v2.321H428.721l-5.293-4.457-5.292,4.457H404.045l12.338-10.391L393.246,897.74H359.215v12.274l-13.673,7.169,13.673,8.445v1.989H345.587l-8.347-5.155-.039.04-.38-.261-6.937,4.857v.518H312.9l15.545-11.1-38.067-26.026-29.6,20.1-9.532,6.844,10.641,7.078.006-.006.233.165.3.2v.013l3.875,2.737H250.49l-7.433-4.945-9.429,4.945H220.842v-3.179l13.673-7.17-13.673-8.444V897.74H186.81l-23.137,19.486,12.338,10.391H161.92l-5.292-4.458-5.293,4.458H140V925.3l9.582-8.071L140,909.156V897.74H126.446l-9.582-8.07-9.583,8.07H93.726v11.416l-9.582,8.07,9.582,8.071v2.321H82.391L77.1,923.16l-5.292,4.457H57.715l12.338-10.391L46.916,897.74H12.885v12.274L1.418,916.028v-9.885l1.5-.789V889.349H36.952L12.891,869.084l12.785-10.768-2.438-13.335-9.4-1.881L1.418,851.534V840.755l9.972-6.771,9.064,1.815-2.831-8.17L45.5,804.291H1.418V795.9h54.11L89.8,767.211,58.878,740.586H1.418v-8.392H49.132L17.148,704.656l3.226-10.469L6.237,696.144l-4.819-3.4V681.79l7.716,5.449,13.886-1.923,3.305-11.969L12.892,662.023l24.06-20.264H2.921V626.536l-1.5-.929V615.2l11.467,7.082v11.084H46.916l23.137-19.486L46.916,594.4H12.885V606.67L1.418,612.683V602.8l1.5-.789V586H36.952L12.891,565.739l12.785-10.768-2.438-13.335-9.4-1.882L1.418,548.19V537.411l9.972-6.772,9.064,1.815-2.831-8.17L45.5,500.947H1.418v-8.392h54.11L89.8,463.867,58.878,437.242H1.418V428.85H49.132L17.148,401.311l3.226-10.469L6.237,392.8l-4.819-3.4V378.446L9.134,383.9l13.886-1.922L26.325,370,12.892,358.677l24.06-20.262H2.921V323.192l-1.5-.928V311.859l11.467,7.082v11.083H46.916l23.137-19.485L46.917,291.052H12.885v12.274L1.418,309.34v-9.885l1.5-.789V282.661H36.953L12.891,262.4l12.785-10.768-2.438-13.335-9.4-1.882L1.418,244.845V234.067L11.39,227.3l9.064,1.815-2.831-8.17L45.5,197.6H1.418v-8.392h54.11L89.8,160.523,58.878,133.9H1.418v-8.392H49.132L17.148,97.968,20.374,87.5,6.237,89.456l-4.819-3.4V75.1l7.716,5.449L23.02,78.629l3.305-11.97L12.892,55.334,36.953,35.07H2.921V19.848l-1.5-.928V8.515L12.885,15.6V26.679H46.916L70.053,7.194,63.188,1.412H91.009L84.144,7.194l9.582,8.07V26.679h13.554l9.583,8.07,9.582-8.07H140V15.264l9.582-8.07-6.866-5.782h27.822l-6.865,5.782,23.137,19.485h34.032V14.405l13.673-7.17-9.429-5.823h16.848l1.232.761,1.06-.761h15.357L251.246,7.4l10.642,7.079.006-.006.234.166.3.2v.013l27.3,19.281L328.443,6.482l-7.416-5.07h15.808l.349.238.455-.238h18.85l-10.947,5.74L359.215,15.6V26.679h34.031L416.383,7.194l-6.865-5.782h27.822l-6.865,5.782,9.582,8.07V26.679H453.61l9.582,8.07,9.583-8.07H486.33V15.264l9.582-8.07-6.865-5.782h27.822L510,7.194,533.14,26.679h34.031V14.405l13.673-7.17-9.429-5.823h16.848l1.232.761,1.06-.761h15.357L597.576,7.4l10.642,7.078.005-.006.242.171.294.2v.012l27.3,19.282L674.772,6.482l-7.416-5.07h15.808l.349.238.455-.238h18.85l-10.947,5.74L705.544,15.6V26.679h34.031L762.712,7.194l-6.865-5.782h27.822L776.8,7.194l9.582,8.07V26.679H799.94l9.582,8.07,9.583-8.07h13.554V15.264l9.583-8.07-6.866-5.782H863.2l-6.865,5.782,23.137,19.485H913.5V14.405l13.673-7.17-9.428-5.823h16.848l1.232.761,1.059-.761h15.357L943.906,7.4l10.641,7.079.007-.007.249.177.286.19v.012l27.3,19.282L1021.1,6.482l-7.416-5.07h15.809l.348.238.455-.238h18.851L1038.2,7.152l13.674,8.445V26.679h34.03l23.137-19.485-6.865-5.782H1130l-6.865,5.782,9.582,8.07V26.679h13.556l9.582,8.07,9.582-8.07h13.554V15.264l9.582-8.07-6.865-5.782h27.822l-6.865,5.782L1225.8,26.679h34.031V14.405l13.673-7.17-9.429-5.823h16.848l1.232.761,1.06-.761h15.357L1290.234,7.4l10.643,7.079.006-.007.266.188.27.179v.011l27.3,19.283,38.709-27.648-7.416-5.07h15.809l.349.238.455-.238h18.849l-10.947,5.74L1398.2,15.6V26.679h34.031l23.138-19.485-6.865-5.782h27.822l-6.866,5.782,9.582,8.07V26.679H1492.6l9.582,8.07,9.582-8.07h13.555V15.264l9.582-8.07-6.866-5.782h27.823l-6.866,5.782,23.138,19.485h34.031V14.405l13.673-7.17L1610.4,1.412h16.848l1.232.761,1.06-.761H1644.9L1636.564,7.4l10.643,7.079.006-.007.267.189.269.178v.011l27.3,19.283,38.709-27.648-7.417-5.07h15.809l.349.238.455-.238h18.85l-10.947,5.74,13.672,8.445V26.679h34.031L1801.7,7.194l-6.866-5.782h27.822l-6.865,5.782,9.582,8.07V26.679h13.554l9.582,8.07,9.582-8.07h13.556V15.264l9.582-8.07-6.865-5.782h27.822l-6.865,5.782,23.137,19.485h34.031V14.405l4.051-2.124V35.07h-28.118l24.062,20.266L1939.7,66.1l2.42,13.237,12.5,2.477,1.925-1.375V90.818l-13.013-2.564,1.93,13.178-22.55,18.992-5.336,4.758,38.969-.082v8.392l-48.4.1L1877.8,160.639l34.435,29.282h44.3v8.392h-34.433l25.861,21.99-3.023,10,11.6-1.5v10.227l-2.135-1.461-12.06,1.563-3.3,11.939,13.433,11.325-24.061,20.264h28.119v21.977l-4.051-2.5V291.052h-34.032l-23.136,19.486,23.137,19.485h34.031V317.75l4.051-2.124v22.79h-28.118l24.062,20.264L1939.7,369.447l2.42,13.237,12.5,2.477,1.925-1.375v10.376l-13.013-2.564,1.93,13.178-22.55,18.991-5.336,4.758,38.969-.082v8.392l-48.4.1L1877.8,463.983l34.435,29.281h44.3v8.392h-34.433l25.861,21.991-3.023,10,11.6-1.5v10.228l-2.135-1.46-12.06,1.563-3.3,11.938,13.433,11.325L1928.422,586h28.118v21.977l-4.051-2.5V594.4h-34.031l-23.137,19.486,23.137,19.486h34.031V621.094l4.051-2.124v22.789h-28.118l24.062,20.266L1939.7,672.792l2.42,13.237,12.5,2.477,1.925-1.375v10.376l-13.013-2.564,1.93,13.177-22.55,18.992-5.336,4.757,38.969-.082v8.392l-48.4.1L1877.8,767.326l34.433,29.282h44.3V805h-34.433l25.861,21.99L1944.943,837l11.6-1.5v10.227l-2.135-1.461-12.06,1.563-3.3,11.939,13.433,11.325-24.06,20.263h28.118v21.978l-4.051-2.5Zm-70.877,7.94,6.664,5.613,16.092-13.553h-22.756Zm-19.392-16.331h9.428V870.185h0l-16.092,13.553Zm-36.846,0h9.427l6.664-5.612-16.091-13.552Zm0-31.031L1848.51,877.8l23.138-19.486V829.656h-14.212l-8.585-9.1-10.772,9.1h-12.705Zm-149.659-585.31,29.609-20.1.1-56.867-27.515-27.273-30.416,27.026v57.923Zm-28.223-8.488v27.651l20.292-13.778Zm36.133,13.9,21.63,14.788.051-29.509Zm-7.932,5.386-29.627,20.117-9.5,6.823,10.643,7.079.006-.006.248.174.288.192v.012l27.3,19.282,38.709-27.647Zm-346.307-10.794,29.608-20.1.1-56.867-27.515-27.273-30.415,27.026v57.923Zm-28.224-8.488v27.651l20.292-13.778Zm36.133,13.9,21.63,14.788.051-29.509Zm-7.932,5.385-29.626,20.117-9.5,6.824,10.642,7.079.006-.006.246.174.289.192v.012l27.3,19.282,38.709-27.647ZM983.056,273.007l29.61-20.1.1-56.867-27.515-27.274-30.414,27.026v57.924Zm-28.222-8.487v27.65l20.29-13.777Zm36.132,13.895L1012.6,293.2l.051-29.509Zm-7.932,5.385-29.609,20.1-9.52,6.836,10.642,7.079.006-.006.229.163.307.2v.013l27.3,19.282,38.709-27.648ZM636.727,273.007l29.609-20.1.1-56.867-27.515-27.273L608.5,195.788v57.923ZM608.5,264.52v27.65L628.8,278.393Zm36.133,13.895,21.63,14.788.051-29.509Zm-7.931,5.385-29.626,20.117-9.5,6.824,10.642,7.079.005-.006.222.157.315.209v.013l27.3,19.282,38.709-27.649ZM290.4,273.007l29.609-20.1.1-56.867L292.59,168.762l-30.414,27.026v57.924Zm-28.222-8.487v27.65l20.29-13.777Zm36.132,13.895,21.63,14.788.051-29.509Zm-7.932,5.386-29.618,20.111-9.511,6.829,10.642,7.078.005-.005.214.151.324.215v.014l27.3,19.281,38.709-27.648Zm29.488,455.037.033-65.766L289.769,651.8,262.32,671.4l-.136,60.949,30.811,30.542,27.07-24.054Zm.054-108.575-22.439,16.026L319.9,662.125Zm-37.894,16.062-19.616-13.854-.063,27.91Zm-19.592-24.8v.014l27.3,19.281,38.709-27.649-38.067-26.025-29.618,20.111-9.511,6.829,10.642,7.078.005-.005.214.151Zm57.432-186.03.033-65.766-30.127-21.277L262.32,368.056,262.183,429l30.811,30.542,27.07-24.054Zm.054-108.575-22.439,16.026L319.9,358.78Zm-37.894,16.063-19.616-13.854-.063,27.91ZM200.088,240.509l-16.75,2.172-9.312-7.842L149.964,255.1v27.556h32.719l24.065-20.268-10.3-8.685ZM149.964,517.922v28.66l24.062-20.265,12.787,10.768,15.782-2.046,2.679-8.861-28.838-24.522H135.614l-11.33,9.572,6.313,6.695ZM140,566.841l-16.092,13.552L130.573,586H140Zm66.745,95.184-24.062-20.266h-32.72v27.556l24.064,20.268,10.314-8.678,15.672,3.069-2.578-14.108Zm27.769-48.1-13.673-8.445V594.4H186.81l-23.138,19.486,23.137,19.486h34.032V621.094Zm17.7-11.644V561.053l-29.455-20.137L210.7,542.478l-3.3,11.938,13.433,11.325L196.774,586h34.031v15.223l12.359,7.633,8.921-6.405-.053-.056ZM213.3,533.652l12.311-1.6,26.6,18.19V501.655H190.458l25.862,21.991Zm-40.576,99.716-16.092-13.552-6.664,5.612v7.94Zm-16.092-25.419L172.719,594.4H149.964v7.94ZM182.683,586l24.064-20.267-10.3-8.686,3.644-13.2-16.75,2.172-9.312-7.842-24.062,20.265V586Zm-44.8-92.741h28.687l-27.257-23.177L125.384,482.5Zm24.871-56.3-26.743.056-10.863,9.094,14,11.9Zm9.433-8.411,11.88-10.592,19.261-16.223-1.783-12.177-14.072-2.774L174.024,398.1l-24.06-20.263V406.5H131.939l-8.373,9.949,11.088,12.185Zm19.075-4.787-5.336,4.758,66.3-.14.12-53.2L225.579,394.3l-13.7-2.7,1.93,13.178Zm-41.3-101.683v7.94h22.756l-16.092-13.552Zm22.755-31.031H149.964v7.94l6.664,5.612Zm-22.755,47.363v27.556l24.064,20.267,10.314-8.677,15.672,3.069-2.578-14.108,9.31-7.842-24.062-20.264Zm13.709-27.877,23.137,19.485h34.032V317.75l13.673-7.169-13.673-8.446V291.052H186.809Zm67.133,11.871v16.006H196.773l24.063,20.264L208.05,369.447l2.421,13.237,12.5,2.477,29.4-21,.094-41.926-9.4-6.254ZM176.49,436.936l-30.334,27.047,34.434,29.281h74.462l31.05-27.591-29.163-28.906Zm116.1,35.169-30.414,27.026v57.925l28.222,19.3,29.609-20.1.1-56.867Zm-30.414,95.759v27.65l20.29-13.777Zm36.132,13.895,21.63,14.788.051-29.509Zm-55.25,37.569-12.252,6.425v16.005H196.773l24.063,20.266L208.05,672.792l2.421,13.237,12.5,2.477,29.4-21,.094-41.926Zm-17.479,78.314-13.7-2.7,1.93,13.177-22.55,18.992-5.336,4.757,66.3-.14.12-53.2Zm-22.253,7.44-1.783-12.176-14.072-2.774-13.448,11.313-24.06-20.264v28.662H131.939l-8.373,9.948,11.088,12.186,37.531-.079,11.88-10.592Zm-67.318,35.283-10.863,9.094,14,11.9,23.61-21.051Zm-10.624,45.484,12.5,10.759h28.687l-27.257-23.177Zm-6.847,6.1-8.466,7.549,7.974,8.454,9.63-8.136ZM132.3,767.464l-14.218-12.09L103.836,767.3l14.575,12.549ZM118.133,743.5l8.2-6.866-8.8-9.674L109.67,736.3Zm8.658-42.045H140V672.791L116.864,653.3,93.726,672.791v28.661h12.9v.455l.421-.271L117.22,712.82ZM140,660.923V641.759h-9.427l-6.665,5.613Zm-30.182-13.552-6.665-5.613H93.726v19.166Zm-2.538-14,9.583,8.07,9.582-8.07H140V621.952l9.582-8.07L140,605.812V594.4H126.446l-9.582-8.07-9.583,8.07H93.726v11.416l-9.582,8.07,9.582,8.07v11.415Zm2.538-52.975L93.726,566.841V586h9.427ZM93.726,554.973l23.138,19.486L140,554.973V526.312H125.788l-8.585-9.1-10.773,9.1h-12.7Zm24.319-50.361,9.63-8.136-9.138-7.868-8.467,7.549ZM132.3,464.12l-14.217-12.09-14.242,11.921L118.411,476.5Zm-14.162-23.968,8.2-6.865-8.8-9.674-7.863,9.342Zm8.658-42.045H140V369.446L116.864,349.96,93.726,369.446v28.661h12.9v.455l.421-.271,10.177,11.185Zm-2.882-54.08L140,357.579V338.415h-9.427l-6.665,5.611Zm-14.09,0-6.665-5.611H93.726V357.58Zm-2.538-14,9.583,8.07,9.582-8.07H140V318.608l9.582-8.07L140,302.468V291.052H126.446l-9.582-8.071-9.583,8.071H93.726v11.415l-9.582,8.07,9.582,8.07v11.415ZM140,282.661V263.5l-16.092,13.552,6.665,5.613Zm-30.182-5.613L93.726,263.5v19.166h9.427ZM93.726,251.629l23.138,19.485L140,251.629v-28.66H125.788l-8.585-9.1-10.773,9.1h-12.7Zm24.319-50.36,9.63-8.136-9.138-7.868-8.467,7.549Zm14.25-40.492-14.218-12.09-14.242,11.921,14.576,12.549Zm-14.162-23.968,8.2-6.866-8.8-9.674-7.864,9.343Zm7.011,5.962,14,11.9,23.61-21.052-26.743.056Zm.239,36.39,12.5,10.76h28.687l-27.257-23.178Zm10.231,19.152-11.33,9.572,6.313,6.694h19.366v28.661l24.062-20.266,12.787,10.768,15.782-2.046,2.679-8.861-28.837-24.521ZM216.32,220.3,213.3,230.307l12.311-1.6,26.6,18.189V198.312H190.459Zm6.437,17.269L210.7,239.134l-3.3,11.939L220.835,262.4l-24.061,20.264h34.032v15.222l12.359,7.633,8.921-6.406-.053-.054.178-.122V257.708Zm76.728,228.409L326.3,492.555h75.562l34.274-28.688-30.923-26.625H331.826ZM666.193,738.838l.033-65.767L636.1,651.8,608.649,671.4l-.138,60.949,30.813,30.542,27.07-24.054Zm.054-108.576-22.439,16.027,22.424,15.836Zm-37.894,16.063-19.617-13.854-.062,27.91Zm-19.593-24.8v.013l27.3,19.282,38.709-27.649-38.067-26.025-29.626,20.116-9.5,6.824,10.642,7.079.005-.006.222.157Zm57.433-186.03.033-65.766L636.1,348.451l-27.449,19.605L608.512,429l30.813,30.542,27.07-24.054Zm.054-108.576-22.439,16.027,22.424,15.836ZM628.353,342.98l-19.617-13.854-.062,27.911ZM546.419,240.509l-16.752,2.172-9.31-7.842L496.294,255.1v27.556h32.718l24.065-20.268-10.3-8.685Zm-90.019-47.7,7.975,8.455,9.63-8.136-9.138-7.868Zm22.225-32.037-14.218-12.09-14.242,11.921,14.576,12.549Zm-15.092,53.09-10.772,9.1h-12.7V251.63l23.138,19.485L486.33,251.63V222.969H472.118ZM440.056,263.5v19.165h9.427l6.665-5.613Zm30.182,13.552,6.665,5.613h9.427V263.5h0Zm2.538,14-9.583-8.071-9.582,8.071H440.056v11.415l-9.582,8.07,9.582,8.07v11.415H453.61l9.582,8.07,9.583-8.07H486.33V318.608l9.582-8.07-9.582-8.07V291.052ZM373.311,262.4l24.062,20.266h32.72V255.1l-24.064-20.267L395.7,243.525l-15.671-3.138,2.589,14.166Zm-27.769,48.1,13.673,8.445v11.083h34.031l23.137-19.485-23.136-19.486H359.215v12.274Zm61.8-19.443L423.428,304.6l6.665-5.612v-7.94Zm16.091,25.419-16.091,13.552h22.756v-7.94Zm-26.055,21.943-24.064,20.266,10.3,8.687-3.644,13.2,16.751-2.172,9.311,7.842,24.063-20.266V338.415Zm8.656,59.688-12.786-10.768-15.8,2.049-2.911,9.448L409.4,428.85h37.842l10.278-12.21L448.29,406.5h-18.2V377.837ZM383.282,641.759H349.251V626.536l-12.011-7.417-.039.039-.379-.26-6.938,4.857-.022,45.4,25.6,18.08,13.888-1.923,3.3-11.969-13.433-11.324Zm-3.315,42.152,16.751-2.172,9.311,7.843,24.063-20.266V641.759h-32.72l-24.064,20.268,10.3,8.686Zm-6.657-118.171L397.373,586h32.72V558.449l-24.064-20.267L395.7,546.869l-15.671-3.137,2.589,14.166Zm-27.768,48.1,13.672,8.443v11.084h34.031l23.137-19.486L393.246,594.4H359.215V606.67ZM407.336,594.4l16.092,13.552,6.665-5.612V594.4Zm16.092,25.42-16.091,13.552h22.756v-7.94ZM335.37,607.1l1.815,1.24,12.066-6.329V586h34.031L359.22,565.739l12.787-10.768-2.439-13.335-9.4-1.882-30.206,20.51-.074,42.873Zm22.35-76.459,9.063,1.815-2.831-8.17,27.881-23.337H330.066l-.084,48.526Zm17.456-3.919,2.761,7.967,14.66,2.935,13.434-11.3,24.062,20.264V517.922h18.531l8.67-7.326-9.1-9.649H405.966ZM464.462,743.5l8.2-6.866-8.8-9.674L456,736.3Zm-.055,11.877L450.165,767.3l14.575,12.549,13.884-12.38Zm8.711-53.922H486.33V672.791L463.192,653.3l-23.137,19.486v28.661h12.9v.455l.421-.271L463.55,712.82Zm13.211-40.528V641.759H476.9l-6.665,5.613Zm-30.182-13.552-6.665-5.613h-9.427v19.165Zm-2.538-14,9.582,8.07,9.583-8.07H486.33V621.952l9.582-8.07-9.582-8.07V594.4H472.776l-9.583-8.07-9.582,8.07H440.056v11.416l-9.582,8.07,9.582,8.07v11.415Zm99.466,28.657-24.063-20.266H496.294v27.556l24.064,20.268,10.313-8.678,15.673,3.069-2.579-14.108Zm27.768-48.1-13.673-8.445V594.4H533.14L510,613.882l23.138,19.486h34.031V621.094Zm17.7-11.644V561.053l-29.455-20.137-12.059,1.563-3.3,11.938,13.433,11.325L543.1,586h34.03v15.223l12.36,7.633,8.921-6.406-.053-.055Zm-38.916-68.628,12.311-1.6,26.6,18.189V501.655H536.787l25.862,21.991Zm-40.576,99.716-16.091-13.552-6.664,5.612v7.94Zm-16.091-25.419L519.049,594.4H496.294v7.94ZM529.013,586l24.064-20.267-10.3-8.686,3.645-13.2-16.752,2.172-9.31-7.842-24.062,20.265V586Zm-8.656-59.688,12.785,10.768,15.783-2.046,2.679-8.861-28.838-24.522H481.942l-11.328,9.573,6.313,6.694h19.367v28.66ZM463.192,349.96l-23.137,19.486v28.661h12.9v.455l.421-.271,10.177,11.185,9.569-11.368H486.33V369.446Zm23.138,7.619V338.415H476.9l-6.665,5.611Zm-30.182-13.553-6.665-5.611h-9.427V357.58l16.092-13.553ZM456,432.955l8.463,7.2,8.2-6.865-8.8-9.674Zm7.193,141.5,23.138-19.485V526.312H472.118l-8.585-9.1-10.772,9.1h-12.7v28.662Zm-23.137-7.618V586h9.427l6.665-5.612Zm30.182,13.552L476.9,586h9.427V566.841h0Zm-5.864-75.78,9.63-8.136-9.137-7.868-8.467,7.549Zm14.251-40.492-14.217-12.09-14.242,11.921L464.74,476.5Zm-7.15-18.005,14,11.9,23.61-21.051-26.743.056Zm.239,36.39,12.5,10.759H512.9l-27.257-23.178Zm-24.98,10.051,11.16-9.951L443.1,469.866l-27.107,22.69Zm-3.536-34.6,14.2-11.885-10.378-8.826H419.145ZM478.268,406.5l-8.374,9.948,11.088,12.186,37.532-.079,11.879-10.592,19.262-16.223-1.783-12.177L533.8,386.788,520.354,398.1l-24.06-20.263V406.5Zm59.321,17.267-5.337,4.759,66.3-.14.119-53.2L571.907,394.3l-13.7-2.7,1.93,13.178ZM496.294,322.084v7.94h22.755l-16.091-13.553Zm22.755-31.031H496.294v7.94l6.664,5.612Zm-22.755,47.363v27.556l24.064,20.267,10.313-8.677,15.673,3.069-2.579-14.108,9.311-7.842-24.063-20.264ZM510,310.538l23.138,19.485h34.031V317.75l13.673-7.17-13.673-8.445V291.052H533.139Zm67.132,11.871v16.006H543.1l24.063,20.264-12.786,10.768,2.419,13.237,12.5,2.477,29.4-21,.095-41.926-9.4-6.254ZM522.82,436.936l-30.334,27.047,34.434,29.281H601.38l31.05-27.591-29.162-28.906Zm116.1,35.169L608.5,499.132v57.924l28.223,19.3,29.609-20.1.1-56.867ZM608.5,567.864v27.651L628.8,581.737Zm36.133,13.9,21.63,14.788.051-29.509Zm-55.249,37.569-12.253,6.425v16.005H543.1l24.063,20.266-12.786,10.767,2.419,13.237,12.5,2.477,29.4-21,.095-41.926Zm-17.48,78.314-13.7-2.7,1.93,13.177-22.55,18.991-5.337,4.758,66.3-.14.119-53.2Zm-22.252,7.44-1.783-12.176L533.8,690.132l-13.447,11.313-24.06-20.264v28.662H478.268l-8.374,9.948,11.088,12.186,37.532-.079,11.879-10.592Zm-67.318,35.283-10.863,9.094,14,11.9,23.61-21.051Zm-10.624,45.484,12.5,10.759H512.9L485.641,773.43Zm-6.847,6.1L456.4,799.5l7.975,8.454,9.63-8.136Zm-6.973-6L443.1,773.21,415.991,795.9h30.742ZM443.2,761.3l14.2-11.885-10.378-8.826H419.145Zm4.044-29.1,10.278-12.21-9.229-10.142h-18.2V681.181l-24.063,20.266-12.786-10.769-15.8,2.049-2.911,9.449L409.4,732.195Zm-83.763-27.539,3.225-10.469-14.137,1.957-22.709-16.038-.026,52.089h65.631ZM395.462,428.85l-31.984-27.539,3.225-10.469L352.565,392.8l-22.708-16.038-.026,52.089Zm-40-44.955,13.888-1.922,3.3-11.97-13.433-11.325,24.06-20.262H349.251V323.192l-12.011-7.417-.039.039-.38-.26-6.937,4.857-.022,45.4ZM335.37,303.754l1.815,1.24,12.066-6.328V282.661h34.032L359.221,262.4l12.786-10.768-2.439-13.335-9.4-1.882-30.206,20.51-.074,42.873ZM357.72,227.3l9.063,1.815-2.831-8.17L391.832,197.6H330.066l-.084,48.526Zm17.455-3.919,2.762,7.966,14.66,2.936,13.434-11.3,24.062,20.264V214.577h18.531l8.67-7.326-9.1-9.649H405.966Zm71.559-34.165,11.16-9.95-14.8-12.74-27.106,22.689Zm-3.536-34.6,14.2-11.885L447.016,133.9H419.144Zm21.265-17.8,8.2-6.866-8.8-9.674L456,129.612Zm7.011,5.962,14,11.9,23.611-21.052-26.743.056Zm.239,36.39,12.5,10.76H512.9L485.64,166.742Zm10.23,19.152-11.328,9.572,6.313,6.694h19.367v28.661l24.062-20.266,12.785,10.768,15.783-2.046,2.679-8.861-28.837-24.521Zm80.707,21.99-3.024,10.006,12.311-1.6,26.6,18.188V198.312H536.788Zm6.437,17.269-12.059,1.563-3.3,11.939L567.164,262.4,543.1,282.661h34.031v15.222l12.36,7.633,8.921-6.406-.053-.054.178-.121V257.707Zm76.727,228.409,26.812,26.576h75.562l34.274-28.688-30.924-26.625H678.155Zm366.71,272.859.032-65.766L982.428,651.8,954.979,671.4l-.137,60.95,30.813,30.542,27.07-24.054Zm.054-108.576-22.439,16.027,22.424,15.836Zm-37.894,16.064-19.617-13.854L955,660.381Zm-19.593-24.8v.013l27.3,19.282L1021.1,613.17l-38.067-26.026-29.609,20.1-9.52,6.836,10.642,7.079.006-.006.229.162Zm57.433-186.03.032-65.766-30.127-21.277-27.449,19.605-.137,60.949,30.813,30.542,27.07-24.054Zm.054-108.576-22.439,16.027,22.424,15.836Zm-37.894,16.064-19.617-13.854L955,357.036ZM892.748,240.509,876,242.681l-9.311-7.842L842.622,255.1v27.556h32.719l24.065-20.268-10.3-8.685Zm-90.019-47.7,7.975,8.455,9.63-8.136-9.138-7.868Zm22.225-32.037-14.218-12.09-14.242,11.921,14.576,12.55Zm-15.092,53.09-10.773,9.1h-12.7v28.66l23.138,19.485,23.136-19.485v-28.66H818.447ZM786.385,263.5v19.166h9.427l6.665-5.613Zm30.182,13.553,6.665,5.613h9.426V263.5Zm2.538,14-9.583-8.071-9.582,8.071H786.385v11.415l-9.582,8.07,9.582,8.07v11.415H799.94l9.582,8.07,9.583-8.07h13.554V318.608l9.583-8.07-9.583-8.07V291.052ZM719.639,262.4,743.7,282.661h32.719V255.1l-24.064-20.267-10.324,8.688-15.672-3.138,2.59,14.166Zm-27.768,48.1,13.673,8.445v11.083h34.031l23.137-19.485-23.136-19.486H705.544v12.274Zm61.8-19.443L769.758,304.6l6.664-5.612v-7.94Zm16.091,25.419-16.091,13.552h22.755v-7.94ZM743.7,338.415l-24.064,20.266,10.3,8.687-3.645,13.2,16.751-2.172,9.311,7.842,24.062-20.266V338.415Zm8.657,59.688-12.786-10.768-15.8,2.049-2.911,9.448,34.863,30.018H793.57l10.278-12.21L794.619,406.5h-18.2V377.838ZM729.611,641.759H695.58V626.536l-12.011-7.417-.038.039-.38-.26-6.938,4.857-.022,45.4,25.6,18.08,13.886-1.923,3.305-11.969-13.433-11.324ZM726.3,683.91l16.751-2.172,9.311,7.843,24.062-20.266V641.759H743.7l-24.064,20.268,10.3,8.686ZM719.64,565.739,743.7,586h32.719V558.449l-24.064-20.267-10.324,8.687-15.672-3.137,2.59,14.166Zm-27.769,48.1,13.673,8.443v11.084h34.031l23.137-19.486L739.575,594.4H705.544V606.67ZM753.665,594.4l16.092,13.552,6.664-5.612V594.4Zm16.092,25.42-16.091,13.552h22.755v-7.94ZM681.7,607.094l1.819,1.243,12.066-6.328V586h34.031L705.55,565.739l12.785-10.768L715.9,541.637l-9.4-1.882-30.206,20.51-.074,42.873Zm22.354-76.455,9.064,1.815-2.832-8.17,27.881-23.337H676.4l-.084,48.526ZM721.5,526.72l2.761,7.967,14.66,2.935,13.435-11.3,24.06,20.263v-28.66h18.532l8.67-7.326-9.1-9.649H752.3ZM810.792,743.5l8.2-6.866-8.8-9.674-7.863,9.342Zm-.055,11.877L796.495,767.3l14.575,12.549,13.886-12.38Zm8.713-53.922h13.209V672.791L809.522,653.3l-23.137,19.486v28.661h12.9v.455l.421-.271,10.177,11.185Zm13.209-40.528V641.759h-9.426l-6.665,5.613Zm-30.181-13.552-6.665-5.613h-9.427v19.166Zm-2.538-14,9.582,8.07,9.583-8.07h13.554V621.952l9.583-8.07-9.583-8.07V594.4H819.1l-9.583-8.07-9.582,8.07H786.385v11.416l-9.582,8.07,9.582,8.07v11.415ZM899.4,662.025l-24.063-20.266H842.622v27.556l24.065,20.268L877,680.9l15.672,3.069-2.579-14.108Zm27.769-48.1L913.5,605.479V594.4H879.469l-23.138,19.486,23.137,19.486H913.5V621.094Zm17.7-11.644V561.053l-29.454-20.137-12.06,1.563-3.3,11.938,13.433,11.325L889.433,586h34.031v15.223l12.36,7.633,8.92-6.406-.053-.055Zm-38.916-68.628,12.311-1.6,26.6,18.19V501.655H883.117l25.862,21.991Zm-40.576,99.716-16.092-13.552-6.664,5.612v7.94Zm-16.092-25.419L865.378,594.4H842.622v7.94ZM875.342,586l24.064-20.267-10.3-8.686,3.646-13.2L876,546.026l-9.311-7.842-24.063,20.265V586Zm-8.656-59.688,12.786,10.768,15.781-2.046,2.679-8.861L869.1,501.655H828.272l-11.329,9.573,6.313,6.694h19.366v28.66h0ZM816.567,344.027l16.091,13.552V338.415h-9.426l-6.665,5.611Zm-7.045,5.933-23.138,19.486v28.661h12.9v.455l.421-.271,10.177,11.185,9.57-11.368h13.209V369.446Zm-7.046-5.934-6.665-5.611h-9.427V357.58Zm-.149,88.929,8.463,7.2,8.2-6.865-8.8-9.674Zm7.193,141.5,23.137-19.486V526.312H818.447l-8.585-9.1-10.773,9.1h-12.7v28.661Zm-23.137-7.618V586h9.427l6.665-5.612Zm30.182,13.552L823.232,586h9.426V566.841Zm-5.863-75.78,9.63-8.136-9.138-7.868-8.467,7.549Zm14.251-40.492-14.219-12.09-14.242,11.921L811.07,476.5ZM817.8,446.115l14,11.9,23.611-21.051-26.744.056Zm.239,36.389,12.5,10.76h28.687L831.97,470.085Zm-24.98,10.052,11.16-9.951-14.8-12.739-27.107,22.69Zm-3.536-34.6,14.2-11.885-10.378-8.826H765.474ZM824.6,406.5l-8.373,9.949,11.087,12.185,37.533-.079,11.879-10.592,19.26-16.223L894.2,389.561l-14.071-2.774L866.684,398.1l-24.061-20.263V406.5Zm59.321,17.268-5.336,4.758,66.3-.14.12-53.2L918.238,394.3l-13.7-2.7,1.93,13.178Zm-41.3-101.683v7.94h22.756l-16.092-13.552Zm22.755-31.031H842.622v7.94l6.664,5.612Zm-22.755,47.363v27.556l24.065,20.267L877,377.56l15.672,3.068-2.579-14.107,9.311-7.842-24.063-20.264Zm13.709-27.877,23.137,19.485H913.5V317.75l13.673-7.17L913.5,302.134V291.052H879.468Zm67.133,11.871v16.006H889.432l24.062,20.264L900.71,369.447l2.419,13.237,12.5,2.477,29.4-21,.095-41.925-9.4-6.254ZM869.149,436.936l-30.334,27.047,34.435,29.281H947.71l31.05-27.59L949.6,436.767Zm116.1,35.17-30.414,27.026v57.925l28.222,19.3,29.61-20.1.1-56.866Zm-30.414,95.759v27.65l20.29-13.777Zm36.132,13.895,21.63,14.788.051-29.509Zm-55.25,37.569-12.252,6.425v16.005H889.432l24.062,20.266L900.71,672.792l2.419,13.237,12.5,2.477,29.4-21,.095-41.925Zm-17.479,78.314-13.7-2.7,1.93,13.177-22.55,18.992-5.336,4.757,66.3-.14.12-53.2Zm-22.254,7.44L894.2,692.906l-14.071-2.774-13.447,11.313-24.061-20.264v28.662H824.6l-8.373,9.948,11.087,12.186,37.533-.079,11.879-10.592Zm-67.317,35.283L817.8,749.458l14,11.9,23.611-21.051Zm-10.624,45.484,12.5,10.759h28.688L831.97,773.43Zm-6.847,6.1-8.467,7.549,7.975,8.454,9.63-8.136Zm-6.972-6-14.8-12.739L762.321,795.9h30.742Zm-14.7-24.653,14.2-11.885-10.378-8.826H765.474Zm4.043-29.1,10.278-12.21-9.229-10.142h-18.2V681.181l-24.062,20.266-12.786-10.769-15.8,2.049-2.911,9.449,34.863,30.018Zm-83.764-27.539,3.226-10.469L698.9,696.144l-22.709-16.038-.026,52.089h65.631ZM741.791,428.85l-31.985-27.539,3.226-10.469L698.9,392.8l-22.709-16.038-.026,52.089Zm-40-44.955,13.886-1.922L718.984,370l-13.433-11.325,24.06-20.262H695.58V323.192l-12.011-7.417-.038.039-.381-.26-6.937,4.857-.022,45.4Zm-20.1-80.144,1.819,1.244,12.066-6.328V282.661h34.032L705.55,262.4l12.785-10.768L715.9,238.292l-9.4-1.882-30.206,20.51-.074,42.874ZM704.049,227.3l9.064,1.815-2.832-8.17L738.162,197.6H676.4l-.084,48.526Zm17.456-3.919,2.761,7.966,14.66,2.936,13.435-11.3,24.06,20.263v-28.66h18.532l8.67-7.326-9.1-9.649H752.3Zm71.559-34.165,11.159-9.95-14.795-12.74-27.107,22.689Zm-3.537-34.6,14.2-11.885-10.38-8.825H765.474Zm21.265-17.8,8.2-6.866-8.8-9.674-7.864,9.343Zm7.011,5.962,14,11.9,23.61-21.052-26.743.056Zm.239,36.39,12.5,10.76h28.688L831.97,166.742Zm10.23,19.152-11.329,9.572,6.313,6.694h19.366v28.661h0l24.063-20.267,12.786,10.768,15.781-2.046,2.679-8.861L869.1,198.312Zm80.707,21.99-3.024,10,12.311-1.6,26.6,18.189V198.312H883.118Zm6.438,17.269-12.06,1.563-3.3,11.939L913.494,262.4l-24.061,20.264h34.032v15.222l12.36,7.633,8.92-6.406-.053-.054.178-.121V257.708Zm76.726,228.409,26.812,26.576h75.563l34.274-28.688-30.923-26.625h-73.382Zm366.71,272.859.033-65.767L1328.757,651.8l-27.45,19.605-.136,60.949,30.813,30.542,27.07-24.054Zm.054-108.576-22.439,16.027,22.424,15.836Zm-37.894,16.063-19.617-13.854-.063,27.911Zm-19.593-24.8v.012l27.3,19.282,38.709-27.648-38.067-26.025-29.626,20.116-9.5,6.824,10.642,7.079.006-.006.246.174Zm57.433-186.03.033-65.767-30.127-21.276-27.45,19.605L1301.171,429l30.813,30.542,27.07-24.054Zm.054-108.576-22.439,16.027,22.424,15.836Zm-37.894,16.063-19.617-13.854-.063,27.911Zm-81.935-102.471-16.752,2.172-9.31-7.842L1188.953,255.1v27.556h32.718l24.066-20.268-10.3-8.685Zm-90.019-47.7,7.975,8.456,9.629-8.136-9.138-7.868Zm22.225-32.036-14.217-12.09-14.243,11.921,14.576,12.55Zm-15.092,53.09-10.772,9.1h-12.7v28.66l23.138,19.485,23.137-19.485v-28.66h-14.212ZM1132.715,263.5v19.166h9.428l6.664-5.613Zm30.183,13.553,6.664,5.613h9.427V263.5Zm2.537,14-9.582-8.071-9.582,8.071h-13.556v11.415l-9.582,8.07,9.582,8.07v11.415h13.556l9.582,8.07,9.582-8.07h13.554V318.608l9.582-8.07-9.582-8.07V291.052ZM1065.97,262.4l24.063,20.266h32.718V255.1l-24.064-20.267-10.324,8.688-15.672-3.138,2.591,14.166ZM1038.2,310.5l13.674,8.445v11.083h34.03l23.137-19.485-23.136-19.486h-34.031v12.274ZM1100,291.052l16.091,13.552,6.664-5.612v-7.94Zm16.091,25.419L1100,330.023h22.755v-7.94Zm-26.055,21.943-24.064,20.266,10.3,8.687-3.645,13.2,16.751-2.172,9.311,7.842,24.062-20.266V338.415Zm8.657,59.688L1085.9,387.335l-15.8,2.049-2.91,9.448,34.863,30.018H1139.9l10.278-12.21-9.229-10.142h-18.2V377.838Zm-22.748,243.656h-34.03V626.536l-12.012-7.417-.039.039-.38-.26-6.937,4.857-.022,45.4,25.6,18.08,13.887-1.924,3.305-11.969-13.433-11.324Zm-3.314,42.152,16.751-2.172,9.311,7.843,24.062-20.266V641.759h-32.719l-24.064,20.268,10.3,8.686Zm-6.657-118.171L1090.032,586h32.719V558.449l-24.064-20.267-10.324,8.687-15.672-3.137,2.591,14.166Zm-27.769,48.1,13.674,8.444v11.084h34.03l23.137-19.486L1085.9,594.4h-34.03V606.67Zm61.794-19.443,16.092,13.552,6.664-5.612V594.4Zm16.092,25.42L1100,633.368h22.755v-7.94Zm-88.069-12.726,1.826,1.248,12.067-6.328V586h34.03l-24.062-20.265,12.786-10.768-2.438-13.335-9.4-1.882-30.207,20.51-.074,42.873Zm22.362-76.451,9.063,1.815-2.832-8.17,27.881-23.337h-61.767l-.083,48.527Zm17.455-3.919,2.76,7.967,14.659,2.935,13.436-11.3,24.06,20.263v-28.66h18.532l8.67-7.326-9.1-9.649h-42.225ZM1157.122,743.5l8.2-6.866-8.8-9.673-7.863,9.341Zm-.056,11.877L1142.824,767.3l14.575,12.549,13.885-12.38Zm8.711-53.922h13.211V672.791L1155.852,653.3l-23.138,19.486v28.661h12.9v.456l.42-.272,10.177,11.184Zm13.211-40.528V641.759h-9.427l-6.664,5.613Zm-30.182-13.552-6.664-5.613h-9.428v19.166Zm-2.536-14,9.582,8.07,9.582-8.07h13.554V621.952l9.582-8.07-9.582-8.07V594.4h-13.554l-9.582-8.07-9.582,8.07h-13.556v11.416l-9.582,8.07,9.582,8.07v11.415Zm99.465,28.657-24.063-20.266h-32.719v27.556l24.064,20.268,10.313-8.678L1239,683.974l-2.579-14.108Zm27.768-48.1-13.673-8.445V594.4H1225.8l-23.136,19.486,23.136,19.486h34.031V621.094Zm17.7-11.644V561.052l-29.454-20.136-12.06,1.563-3.3,11.938,13.433,11.325L1235.763,586h34.031v15.223l12.359,7.633,8.921-6.406-.052-.055Zm-38.916-68.628,12.311-1.6,26.6,18.189V501.655h-61.753l25.862,21.991Zm-40.576,99.716-16.091-13.552-6.664,5.612v7.94Zm-16.091-25.419,16.092-13.552h-22.756v7.94ZM1221.672,586l24.065-20.267-10.3-8.686,3.644-13.2-16.752,2.172-9.31-7.842-24.062,20.265V586Zm-8.657-59.688,12.785,10.768,15.782-2.045,2.679-8.862-28.838-24.522H1174.6l-11.329,9.573,6.313,6.694h19.367v28.66ZM1155.852,349.96l-23.138,19.486v28.661h12.9v.455l.42-.272,10.177,11.184,9.569-11.367h13.211V369.446Zm23.137,7.619V338.415h-9.427l-6.664,5.611Zm-30.182-13.553-6.664-5.611h-9.428V357.58Zm-.149,88.929,8.464,7.2,8.2-6.865-8.8-9.673Zm7.194,141.5,23.137-19.486V526.312h-14.212l-8.585-9.1-10.772,9.1h-12.7v28.661Zm-23.138-7.619V586h9.428l6.664-5.612Zm30.183,13.553,6.664,5.612h9.427V566.841Zm-5.864-75.78,9.63-8.136-9.138-7.868-8.467,7.549Zm14.251-40.492-14.218-12.09-14.242,11.921L1157.4,476.5Zm-7.151-18.005,14,11.9,23.611-21.051-26.743.056Zm.238,36.389,12.5,10.76h28.687L1178.3,470.085Zm-24.978,10.052,11.159-9.951-14.8-12.739-27.107,22.69Zm-3.537-34.6,14.2-11.885-10.379-8.826H1111.8Zm35.071-51.453-8.374,9.949,11.087,12.185,37.533-.079,11.879-10.592,19.26-16.223-1.783-12.177-14.071-2.774L1213.013,398.1l-24.06-20.263V406.5Zm59.32,17.268-5.336,4.758,66.3-.14.119-53.2L1264.566,394.3l-13.7-2.7,1.93,13.178Zm-41.295-101.683v7.94h22.755l-16.091-13.553Zm22.755-31.031h-22.755v7.94l6.664,5.612Zm-22.755,47.363v27.556l24.064,20.267,10.313-8.677L1239,380.629l-2.579-14.107,9.312-7.842-24.063-20.264Zm13.709-27.877,23.136,19.485h34.031V317.75l13.673-7.17-13.673-8.445V291.052H1225.8Zm67.132,11.871v16.006h-34.031l24.062,20.264-12.787,10.768,2.42,13.237,12.5,2.477,29.4-21,.095-41.925-9.4-6.254Zm-54.316,114.527-30.334,27.046,34.434,29.282h74.46l31.051-27.591-29.162-28.906Zm116.1,35.169-30.415,27.026v57.924l28.224,19.3,29.608-20.1.1-56.867Zm-30.415,95.758v27.652l20.292-13.778Zm36.133,13.9,21.63,14.788.051-29.509Zm-55.25,37.569-12.252,6.425v16.005h-34.031l24.062,20.266-12.787,10.767,2.42,13.237,12.5,2.477,29.4-21,.095-41.925Zm-17.48,78.314-13.7-2.7,1.93,13.177-22.55,18.992-5.336,4.757,66.3-.14.119-53.2Zm-22.253,7.44-1.783-12.176-14.071-2.774-13.447,11.313-24.06-20.264v28.662h-18.025l-8.374,9.949,11.087,12.185,37.533-.079,11.879-10.592ZM1175,740.365l-10.864,9.094,14,11.9,23.611-21.051Zm-10.626,45.484,12.5,10.759h28.688L1178.3,773.43Zm-6.846,6.1-8.467,7.549,7.975,8.455,9.629-8.136Zm-6.972-6-14.8-12.739L1108.651,795.9h30.743Zm-14.7-24.653,14.2-11.885-10.379-8.826H1111.8Zm4.044-29.1,10.278-12.21-9.229-10.142h-18.2V681.181l-24.062,20.266L1085.9,690.679l-15.8,2.049-2.91,9.449,34.863,30.018Zm-83.763-27.539,3.225-10.469-14.137,1.957-22.709-16.038-.027,52.089h65.632Zm31.983-275.805-31.984-27.539,3.225-10.469-14.136,1.957-22.709-16.038-.027,52.089Zm-40-44.955,13.887-1.923,3.305-11.97-13.433-11.325,24.06-20.262h-34.03V323.192l-12.012-7.417-.039.039-.38-.26-6.937,4.857-.022,45.4Zm-20.1-80.149,1.826,1.248,12.067-6.327V282.661h34.031L1051.879,262.4l12.786-10.768-2.438-13.335-9.4-1.882-30.207,20.51-.074,42.874ZM1050.38,227.3l9.062,1.815-2.831-8.17,27.881-23.337h-61.767l-.083,48.526Zm17.455-3.919,2.76,7.967,14.659,2.935,13.436-11.3,24.06,20.263v-28.66h18.532l8.67-7.326-9.1-9.649h-42.225Zm71.559-34.165,11.158-9.95-14.795-12.74-27.107,22.689Zm-3.538-34.6,14.2-11.885-10.38-8.825H1111.8Zm21.265-17.8,8.2-6.866-8.8-9.673-7.863,9.342Zm7.011,5.962,14,11.9,23.61-21.052-26.742.056Zm.239,36.39,12.5,10.76h28.687L1178.3,166.742Zm10.231,19.152-11.329,9.572,6.313,6.694h19.367v28.661l24.062-20.266L1225.8,233.74l15.782-2.046,2.679-8.861-28.837-24.521Zm80.706,21.99-3.024,10.006,12.311-1.6,26.6,18.188V198.312h-61.752Zm6.438,17.269-12.06,1.564-3.3,11.938,13.433,11.325-24.061,20.264h34.032v15.222l12.359,7.633,8.921-6.406-.052-.054.177-.12V257.707Zm76.727,228.409,26.811,26.576h75.563l34.273-28.688L1444.2,437.242h-73.383Zm366.709,272.859.033-65.767L1675.087,651.8l-27.45,19.605-.136,60.949,30.812,30.542,27.07-24.054Zm.054-108.575L1682.8,646.288l22.422,15.836Zm-37.894,16.062-19.617-13.854-.063,27.911Zm-19.593-24.8v.012l27.3,19.282,38.709-27.647-38.067-26.025-29.627,20.117-9.5,6.823,10.643,7.079.006-.006.248.175Zm57.433-186.03.033-65.767-30.127-21.276-27.45,19.605L1647.5,429l30.812,30.542,27.07-24.054Zm.054-108.575L1682.8,342.944l22.422,15.836Zm-37.894,16.062-19.617-13.854-.063,27.911Zm-81.936-102.471-16.751,2.172-9.311-7.842L1535.281,255.1v27.556H1568l24.065-20.268-10.3-8.685Zm-90.018-47.7,7.975,8.455,9.629-8.136-9.137-7.868Zm22.225-32.037-14.218-12.09-14.242,11.921,14.576,12.55Zm-15.092,53.09-10.773,9.1h-12.7v28.66l23.137,19.485,23.136-19.485v-28.66h-14.213ZM1479.045,263.5v19.165h9.428l6.664-5.613Zm30.181,13.552,6.665,5.613h9.427V263.5Zm2.537,14-9.583-8.071-9.581,8.071h-13.555v11.415l-9.582,8.07,9.582,8.07v11.415H1492.6l9.582,8.07,9.582-8.07h13.555V318.608l9.582-8.07-9.582-8.07V291.052ZM1412.3,262.4l24.063,20.266h32.719V255.1l-24.064-20.267-10.325,8.688-15.672-3.138,2.591,14.166Zm-27.769,48.1,13.673,8.445v11.083h34.031l23.138-19.485-23.137-19.486H1398.2v12.274Zm61.8-19.443,16.091,13.552,6.664-5.612v-7.94Zm16.091,25.419-16.092,13.552h22.756v-7.94Zm-26.056,21.943L1412.3,358.681l10.3,8.687-3.645,13.2,16.751-2.172,9.311,7.842,24.062-20.266V338.415Zm8.658,59.688-12.786-10.768-15.8,2.049-2.911,9.448,34.865,30.018h37.842l10.278-12.21-9.229-10.142h-18.2V377.838Zm-22.748,243.656H1388.24V626.536l-12.012-7.418-.039.04-.38-.26-6.937,4.857-.022,45.4,25.6,18.081,13.888-1.924,3.3-11.969-13.433-11.324Zm-3.316,42.152,16.752-2.172,9.311,7.843,24.062-20.266V641.759h-32.72L1412.3,662.026l10.3,8.686ZM1412.3,565.739,1436.361,586h32.72V558.449l-24.064-20.267-10.325,8.687-15.672-3.137,2.591,14.166Zm-27.768,48.1,13.672,8.444v11.084h34.031l23.138-19.486L1432.234,594.4H1398.2V606.67Zm61.794-19.443,16.092,13.552,6.664-5.612V594.4Zm16.092,25.42-16.092,13.552h22.756v-7.94Zm-88.061-12.72,1.817,1.242,12.067-6.328V586h34.03l-24.062-20.265,12.786-10.768-2.438-13.335-9.4-1.882-30.206,20.51-.074,42.873Zm22.352-76.457,9.063,1.815-2.831-8.17,27.881-23.337h-61.767l-.084,48.527Zm17.456-3.919,2.76,7.967,14.66,2.935,13.437-11.3,24.06,20.263v-28.66h18.53l8.671-7.326-9.1-9.649h-42.226ZM1503.451,743.5l8.2-6.866-8.8-9.673-7.863,9.342Zm-.055,11.877L1489.154,767.3l14.575,12.55,13.886-12.38Zm8.712-53.922h13.211V672.79L1502.182,653.3l-23.137,19.486v28.661h12.9v.455l.421-.272,10.178,11.185Zm13.211-40.528V641.759h-9.427l-6.665,5.613Zm-30.182-13.552-6.664-5.613h-9.428v19.165Zm-2.537-14,9.582,8.07,9.582-8.07h13.555V621.952l9.582-8.07-9.582-8.07V594.4h-13.555l-9.582-8.07-9.582,8.07h-13.555v11.416l-9.582,8.07,9.582,8.07v11.415Zm99.464,28.657L1568,641.759h-32.72v27.556l24.064,20.268,10.314-8.678,15.672,3.069-2.579-14.108Zm27.769-48.1-13.673-8.445V594.4h-34.031l-23.138,19.486,23.138,19.486h34.031V621.094Zm17.7-11.644V561.052l-29.453-20.136-12.059,1.563-3.3,11.938,13.433,11.325L1582.092,586h34.03v15.223l12.36,7.633,8.921-6.406-.052-.055Zm-38.915-68.628,12.311-1.6,26.6,18.189V501.655h-61.752l25.862,21.991Zm-40.576,99.716-16.092-13.552-6.664,5.612v7.94Zm-16.092-25.419,16.092-13.552h-22.756v7.94ZM1568,586l24.064-20.267-10.3-8.686,3.644-13.2-16.751,2.172-9.311-7.842-24.062,20.265V586Zm-8.657-59.688,12.786,10.768,15.782-2.045,2.679-8.862-28.838-24.522h-40.821l-11.329,9.573,6.313,6.694h19.366v28.66Zm-57.162-176.356-23.137,19.486v28.661h12.9v.455l.421-.272,10.178,11.185,9.568-11.367h13.211V369.446Zm23.136,7.618V338.415h-9.427l-6.665,5.611Zm-30.182-13.553-6.664-5.611h-9.428V357.58Zm-.149,88.929,8.463,7.2,8.2-6.865-8.8-9.673Zm7.194,141.5,23.136-19.486V526.312h-14.213l-8.585-9.1-10.773,9.1h-12.7v28.661Zm-23.137-7.618V586h9.428l6.664-5.612Zm30.181,13.552,6.665,5.612h9.427V566.841Zm-5.863-75.78,9.629-8.136-9.137-7.868-8.467,7.549Zm14.251-40.492L1503.4,452.03l-14.242,11.921,14.575,12.55Zm-7.151-18.006,14,11.9,23.611-21.051-26.744.056Zm.239,36.39,12.5,10.759h28.688l-27.257-23.177Zm-24.979,10.051,11.159-9.95-14.8-12.74-27.107,22.69Zm-3.538-34.6,14.2-11.885-10.378-8.826h-27.873Zm35.072-51.453-8.375,9.949,11.088,12.185,37.531-.079,11.881-10.592,19.261-16.223-1.783-12.177-14.072-2.774L1559.342,398.1l-24.06-20.263V406.5Zm59.32,17.268-5.336,4.758,66.3-.14.12-53.2L1610.9,394.3l-13.7-2.7,1.931,13.178Zm-41.3-101.683v7.94h22.756l-16.092-13.553Zm22.755-31.031h-22.755v7.94l6.664,5.612Zm-22.755,47.363v27.556l24.064,20.267,10.314-8.677,15.672,3.069-2.579-14.108,9.31-7.842L1568,338.415Zm13.709-27.877,23.138,19.485h34.031V317.75l13.673-7.17-13.673-8.445V291.052h-34.033Zm67.132,11.871v16.006h-34.03l24.062,20.264-12.786,10.768,2.419,13.237,12.5,2.477,29.4-21,.094-41.925-9.4-6.254Zm-54.315,114.527-30.334,27.047,34.434,29.281h74.461l31.051-27.591-29.162-28.906Zm116.1,35.169-30.416,27.026v57.924l28.223,19.3,29.609-20.1.1-56.867Zm-30.416,95.758v27.652l20.292-13.778Zm36.133,13.9,21.63,14.787.051-29.508Zm-55.249,37.569-12.253,6.425v16.005h-34.03l24.062,20.266-12.786,10.767,2.419,13.237,12.5,2.477,29.4-21,.094-41.926Zm-17.48,78.314-13.7-2.7,1.93,13.177-22.551,18.992-5.336,4.757,66.3-.14.12-53.2Zm-22.252,7.44-1.783-12.176-14.072-2.774-13.448,11.313-24.06-20.264v28.662h-18.024l-8.375,9.948,11.088,12.186,37.531-.079,11.881-10.592Zm-67.318,35.283-10.863,9.094,14,11.9,23.611-21.051ZM1510.7,785.849l12.5,10.759h28.688l-27.257-23.178Zm-6.847,6.1-8.467,7.549,7.975,8.454,9.629-8.136Zm-6.972-6-14.8-12.74L1454.98,795.9h30.743Zm-14.7-24.653,14.2-11.885-10.378-8.826h-27.873Zm4.044-29.1,10.278-12.21-9.23-10.142h-18.2V681.181l-24.062,20.266-12.786-10.769-15.8,2.049-2.911,9.449,34.865,30.018Zm-83.764-27.539,3.226-10.469-14.136,1.957-22.71-16.038-.026,52.089h65.631ZM1434.45,428.85l-31.985-27.539,3.226-10.469-14.136,1.957-22.71-16.039-.026,52.09Zm-40-44.955,13.887-1.922,3.305-11.97-13.433-11.325,24.061-20.262H1388.24V323.192l-12.012-7.418-.039.04-.38-.26-6.937,4.857-.022,45.4Zm-20.106-80.15,1.828,1.25,12.067-6.328V282.661h34.031L1398.208,262.4l12.786-10.768-2.438-13.335-9.4-1.882-30.206,20.51-.074,42.873Zm22.363-76.45,9.063,1.815-2.831-8.17,27.881-23.337h-61.767l-.084,48.527Zm17.456-3.919,2.759,7.966,14.661,2.936,13.437-11.3,24.06,20.264V214.577h18.53l8.671-7.326-9.1-9.649h-42.226Zm71.559-34.165,11.158-9.95-14.8-12.74-27.106,22.689Zm-3.538-34.6,14.2-11.885L1486,133.9h-27.872Zm21.265-17.8,8.2-6.866-8.8-9.673-7.863,9.342Zm7.011,5.962,14,11.9,23.61-21.052-26.744.056Zm.24,36.39,12.5,10.76h28.688l-27.257-23.178Zm10.231,19.152-11.329,9.572,6.313,6.694h19.366v28.661l24.062-20.266,12.786,10.768,15.782-2.046,2.679-8.861-28.837-24.521Zm80.706,21.99-3.024,10.006,12.311-1.6,26.6,18.188V198.312h-61.751Zm6.438,17.269-12.059,1.563-3.3,11.939,13.433,11.325-24.061,20.264h34.031v15.222l12.36,7.633,8.921-6.406-.052-.054.176-.12V257.707ZM1684.8,465.979l26.812,26.576h75.563l34.274-28.688-30.924-26.625h-73.383ZM1828.516,761.3l14.2-11.884-10.379-8.826h-27.871Zm-.1,11.915L1801.309,795.9h30.744l11.159-9.951Zm4.142-41.015,10.278-12.21-9.229-10.142h-18.2V681.181l-24.063,20.266-12.785-10.769-15.8,2.049-2.911,9.449,34.864,30.018Zm-7.185-71.271,16.091-13.552-6.664-5.613h-9.427ZM1815.411,406.5V377.838L1791.347,398.1l-12.785-10.768-15.8,2.049-2.91,9.448,34.863,30.018h37.842l10.278-12.21-9.229-10.142Zm9.963-48.919,16.091-13.553-6.664-5.611h-9.427ZM1758.629,262.4l24.063,20.266h32.719V255.1l-24.064-20.267-10.326,8.688-15.67-3.138,2.59,14.166Zm-27.769,48.1,13.672,8.445v11.083h34.031l23.137-19.485-23.136-19.486h-34.032v12.274Zm61.8-19.443,16.092,13.552,6.664-5.612v-7.94Zm16.092,25.419-16.092,13.552h22.756v-7.94Zm-26.056,21.943-24.064,20.266,10.3,8.687-3.645,13.2,16.752-2.172,9.31,7.842,24.063-20.266V338.415Zm49.643,98.827h-27.871l24.053,20.709,14.2-11.884Zm-3.917,32.624-27.107,22.69h30.744l11.159-9.951Zm-37.132,31.081-30.791,25.773,2.761,7.967,14.66,2.935,13.435-11.3,24.061,20.263v-28.66h18.531l8.67-7.326-9.1-9.649ZM1768.6,641.759h-34.031V626.536l-12.011-7.418-.039.04-.38-.26-6.937,4.857-.022,45.4,25.6,18.081,13.887-1.924,3.3-11.969-13.433-11.324Zm-3.315,42.152,16.752-2.172,9.31,7.843,24.063-20.266V641.759h-32.72l-24.064,20.268,10.3,8.686Zm-6.656-118.171L1782.691,586h32.72V558.449l-24.064-20.267-10.326,8.687-15.67-3.137,2.59,14.166Zm-27.768,48.1,13.672,8.444v11.084h34.031l23.137-19.486L1778.564,594.4h-34.031V606.67Zm61.793-19.443,16.093,13.552,6.664-5.612V594.4Zm16.093,25.42-16.092,13.552h22.756v-7.94ZM1720.684,607.1l1.819,1.243,12.066-6.328V586H1768.6l-24.062-20.265,12.787-10.768-2.438-13.335-9.4-1.882-30.205,20.51-.074,42.873Zm22.354-76.456,9.064,1.815-2.832-8.17,27.881-23.337h-61.767l-.085,48.527Zm5.759,174.016,3.225-10.469-14.137,1.957-22.71-16.038-.025,52.089h65.632ZM1780.78,428.85,1748.8,401.311l3.225-10.469-14.137,1.957-22.71-16.039-.025,52.09Zm-40-44.955,13.886-1.922,3.305-11.97-13.433-11.325,24.06-20.262h-34.031V323.192l-12.011-7.418-.039.04-.38-.26-6.937,4.857-.022,45.4Zm-20.107-80.151,1.829,1.25,12.066-6.328V282.661H1768.6L1744.538,262.4l12.787-10.768-2.438-13.335-9.4-1.882-30.205,20.51-.074,42.873Zm22.364-76.449,9.064,1.815-2.832-8.17,27.881-23.337h-61.767l-.085,48.527Zm17.455-3.919,2.761,7.967,14.66,2.935,13.435-11.3,24.061,20.264V214.577h18.531l8.67-7.326-9.1-9.649h-42.226Zm71.56-34.165,11.159-9.95-14.8-12.74-27.107,22.689Zm-3.538-34.6,14.2-11.885-10.379-8.825h-27.871Zm21.265-17.8,8.2-6.866-8.8-9.674-7.864,9.343Zm-.056,11.878-14.241,11.921,14.575,12.55,13.884-12.38Zm-8.007,44.128,7.975,8.455,9.63-8.137-9.138-7.868Zm7.133,21.053-10.772,9.1h-12.705v28.66l23.137,19.485,23.138-19.485V222.969h-14.212ZM1825.374,263.5v19.165h9.427l6.665-5.613h0Zm30.182,13.552,6.664,5.613h9.428V263.5h0Zm2.536,14-9.582-8.071-9.582,8.071h-13.554v11.415l-9.582,8.07,9.582,8.07v11.415h13.554l9.582,8.07,9.582-8.07h13.556V318.608l9.582-8.07-9.582-8.07V291.052Zm-2.536,52.974,16.092,13.553V338.415h-9.428Zm16.092,25.42L1848.51,349.96l-23.137,19.486v28.661h12.9v.455l.422-.272,10.176,11.184,9.569-11.367h13.211Zm-30.331,63.509,8.463,7.2,8.2-6.865-8.8-9.674Zm8.408,19.074-14.242,11.921,14.576,12.55,13.884-12.379Zm-8.008,44.129,7.975,8.454,9.63-8.136-9.138-7.868Zm7.133,21.052-10.772,9.1h-12.705v28.661l23.137,19.486,23.138-19.485V526.312h-14.212Zm-23.477,49.63V586h9.427l6.664-5.612Zm30.182,13.552L1862.22,586h9.428V566.841h0Zm2.536,14-9.582-8.07-9.582,8.07h-13.554v11.416l-9.582,8.07,9.582,8.07v11.415h13.554l9.582,8.07,9.582-8.07h13.556V621.952l9.582-8.07-9.582-8.07V594.4Zm-2.536,52.975,16.092,13.552V641.759h-9.428Zm16.092,25.419L1848.51,653.3l-23.137,19.486v28.661h12.9v.456l.422-.272,10.176,11.184,9.569-11.367h13.211ZM1841.317,736.3l8.463,7.2,8.2-6.866-8.8-9.674Zm8.408,19.075L1835.483,767.3l14.576,12.549,13.884-12.38Zm-8.008,44.128,7.975,8.454,9.63-8.136-9.138-7.868Zm-7.776,21.762,8.67-7.326-9.1-9.648h-42.226l-30.791,25.773,2.761,7.967,14.66,2.935,13.435-11.3,24.061,20.263V821.265Zm-56.791-16.974h-61.767l-.085,48.526,27.738-18.834,9.064,1.815-2.832-8.17Zm31.6,107,6.664-5.613v-7.94h-22.757Zm-26.056-21.944h32.72V861.793l-24.064-20.267-10.326,8.687-15.67-3.137,2.59,14.166-9.311,7.842Zm-62.005,21.092,1.816,1.242,12.067-6.328V889.349H1768.6l-24.062-20.265,12.787-10.768-2.438-13.335-9.4-1.881-30.205,20.509-.074,42.874Zm66.49-114.541,34.274-28.688-30.922-26.625h-73.384L1684.8,769.324l26.812,26.576Zm-81.921,103.991.051-29.509L1683.625,885.1Zm-57.763-1.033,20.292-13.777-20.292-13.873Zm0-38.459,28.223,19.3,29.609-20.1.1-56.867-27.515-27.274-30.416,27.026Zm23.927-91.382-29.162-28.906-80.449.169-30.334,27.046,34.435,29.282h74.46ZM1598.613,837l12.311-1.6,26.6,18.188V805h-61.751l25.861,21.99Zm17.51,52.353v15.223l12.36,7.633,8.922-6.406-.053-.056.176-.119V864.4l-29.453-20.137-12.059,1.564-3.3,11.938,13.433,11.325-24.06,20.263Zm-80.841,16.331,6.665,5.613,16.091-13.553h-22.756Zm0-16.331H1568l24.064-20.267-10.3-8.686,3.644-13.2-16.752,2.172-9.311-7.842-24.062,20.265Zm0-68.084v28.661l24.062-20.265,12.786,10.768,15.782-2.046,2.679-8.862L1561.754,805h-40.822l-11.329,9.572,6.313,6.694Zm-19.39,68.084h9.427V870.185l-16.092,13.552Zm-36.846,0h9.428l6.664-5.612-16.091-13.552Zm0-31.031,23.137,19.486,23.136-19.486V829.656h-14.213l-8.585-9.1-10.773,9.1h-12.7Zm8.566-37.052,8.67-7.326-9.1-9.648h-42.226l-30.791,25.773,2.76,7.966,14.66,2.936,13.437-11.3,24.06,20.263V821.265Zm-56.79-16.974h-61.767l-.084,48.526,27.738-18.834,9.063,1.815-2.831-8.17Zm31.6,107,6.664-5.613v-7.94h-22.756Zm-26.056-21.944h32.72V861.793l-24.064-20.267-10.325,8.687-15.672-3.137,2.591,14.166-9.311,7.842Zm-62,21.093,1.815,1.241,12.068-6.328V889.349h34.03l-24.062-20.265,12.786-10.768-2.438-13.335-9.4-1.881-30.206,20.509-.074,42.874ZM1440.846,795.9l34.273-28.688L1444.2,740.586h-73.383l-32.34,28.737,26.811,26.576Zm-81.921,103.991.051-29.509L1337.3,885.1Zm-57.763-1.033,20.291-13.777-20.291-13.873Zm0-38.459,28.223,19.3,29.609-20.1.1-56.867-27.515-27.274-30.415,27.026Zm23.927-91.382-29.162-28.906-80.449.169-30.334,27.046,34.434,29.282h74.46ZM1252.284,837l12.311-1.6,26.6,18.188V805h-61.752l25.861,21.99Zm17.51,52.353v15.223l12.359,7.633,8.922-6.406-.053-.056.177-.119V864.4l-29.454-20.137-12.06,1.564-3.3,11.938,13.433,11.325-24.06,20.263Zm-80.841,16.331,6.664,5.613,16.092-13.553h-22.756Zm0-16.331h32.719l24.065-20.267-10.3-8.686,3.644-13.2-16.752,2.172-9.31-7.842-24.062,20.265Zm0-68.084v28.661l24.062-20.265,12.785,10.768,15.782-2.046,2.679-8.862L1215.425,805H1174.6l-11.329,9.572,6.313,6.694Zm-19.391,68.084h9.427V870.185L1162.9,883.737Zm-36.847,0h9.428l6.664-5.612-16.092-13.553Zm0-31.031,23.138,19.486,23.137-19.486V829.656h-14.212l-8.585-9.1-10.772,9.1h-12.7Zm8.568-37.052,8.67-7.326-9.1-9.648h-42.225l-30.791,25.773,2.76,7.967,14.659,2.935,13.436-11.3,24.06,20.263V821.265Zm-56.791-16.974h-61.767l-.083,48.526,27.738-18.834,9.063,1.815-2.832-8.17Zm31.6,107,6.664-5.613v-7.94h-22.756Zm-26.055-21.944h32.719V861.793l-24.064-20.267-10.324,8.687-15.672-3.137,2.591,14.166-9.311,7.842Zm-62.012,21.087,1.823,1.247,12.068-6.328V889.349h34.03l-24.062-20.265,12.786-10.768-2.438-13.335-9.4-1.881-30.207,20.509-.074,42.874Zm66.5-114.536,34.274-28.688-30.923-26.625h-73.383l-32.341,28.737,26.812,26.576ZM1012.6,899.891l.051-29.509L990.966,885.1Zm-57.762-1.033,20.29-13.776-20.29-13.873Zm0-38.457,28.222,19.3,29.61-20.1.1-56.867L985.249,775.45l-30.414,27.025Zm23.926-91.382L949.6,740.111l-80.448.169-30.334,27.046,34.435,29.282H947.71ZM905.954,837l12.311-1.6,26.6,18.189V805H883.118l25.861,21.99Zm17.51,52.353v15.223l12.36,7.633,8.921-6.406-.054-.056.178-.12V864.4l-29.454-20.137-12.06,1.563-3.3,11.939,13.433,11.325-24.06,20.263ZM842.622,905.68l6.665,5.613,16.091-13.553H842.622Zm0-16.331h32.72l24.064-20.267L889.1,860.4l3.646-13.2L876,849.37l-9.311-7.842-24.063,20.264Zm0-68.084v28.661h0l24.063-20.266,12.786,10.768,15.781-2.046,2.679-8.862L869.1,805H828.272l-11.329,9.572,6.313,6.694Zm-19.39,68.084h9.426V870.185l-16.091,13.552Zm-36.847,0h9.427l6.665-5.612-16.092-13.553Zm0-31.031L809.522,877.8l23.137-19.486V829.656H818.447l-8.585-9.1-10.773,9.1h-12.7Zm8.568-37.052,8.67-7.325-9.1-9.649H752.3L721.5,830.065l2.761,7.967,14.66,2.935,13.435-11.3,24.06,20.263V821.265Zm-56.791-16.974H676.4l-.084,48.526,27.738-18.834,9.064,1.815-2.832-8.17Zm31.6,107,6.664-5.613v-7.94H753.665ZM743.7,889.349h32.719V861.793l-24.064-20.267-10.324,8.687-15.672-3.137,2.59,14.166-9.31,7.842Zm-62,21.1,1.806,1.235,12.067-6.328V889.349h34.031L705.55,869.084l12.785-10.768L715.9,844.981l-9.4-1.881-30.206,20.509-.074,42.874ZM748.187,795.9l34.274-28.688-30.924-26.625H678.155l-32.342,28.737L672.625,795.9ZM666.266,899.891l.051-29.509L644.637,885.1ZM608.5,898.858,628.8,885.08,608.5,871.208Zm0-38.458,28.223,19.3,29.609-20.1.1-56.867L638.919,775.45,608.5,802.476Zm23.926-91.382-29.162-28.906-80.448.169-30.334,27.046,34.435,29.282h74.46ZM559.625,837l12.311-1.6,26.6,18.188V805H536.788l25.861,21.99Zm17.51,52.353v15.223l12.36,7.633,8.921-6.406-.053-.056.178-.12V864.4l-29.455-20.137-12.059,1.563-3.3,11.939,13.433,11.325L543.1,889.349Zm-80.84,16.331,6.664,5.613,16.091-13.553H496.294Zm0-16.331h32.719l24.064-20.267-10.3-8.686,3.645-13.2-16.752,2.172-9.31-7.842-24.062,20.265Zm0-68.084v28.661l24.062-20.265,12.785,10.768,15.783-2.046,2.679-8.862L522.766,805H481.942l-11.328,9.572,6.313,6.694ZM476.9,889.349h9.427V870.185h0l-16.092,13.553Zm-36.847,0h9.427l6.665-5.612-16.092-13.552Zm0-31.031L463.192,877.8l23.138-19.485V829.656H472.118l-8.585-9.1-10.772,9.1h-12.7Zm8.568-37.052,8.67-7.325-9.1-9.649H405.966l-30.791,25.773,2.761,7.967,14.66,2.935,13.434-11.3,24.062,20.264V821.265Zm-56.791-16.974H330.066l-.084,48.526,27.738-18.834,9.063,1.815-2.831-8.17Zm31.6,107,6.665-5.613v-7.94H407.336Zm-26.055-21.944h32.72V861.793l-24.064-20.267L395.7,850.213l-15.671-3.137,2.589,14.166-9.31,7.842Zm-62,21.1,1.806,1.235,12.067-6.328V889.349h34.031L359.22,869.084l12.787-10.768-2.439-13.335-9.4-1.881-30.206,20.509-.074,42.874ZM401.858,795.9l34.274-28.688-30.923-26.625H331.826l-32.341,28.737L326.3,795.9ZM319.937,899.891l.051-29.509L298.307,885.1Zm-57.762-1.033,20.29-13.777-20.29-13.872Zm0-38.457L290.4,879.7l29.609-20.1.1-56.867L292.59,775.449l-30.414,27.026ZM286.1,769.017l-29.163-28.906-80.448.169-30.333,27.046,34.434,29.282h74.461ZM213.294,837l12.312-1.6,26.6,18.189V805H190.459l25.861,21.99Zm17.512,52.353v15.223l12.359,7.633,8.921-6.406-.053-.056.178-.121V864.4l-29.455-20.138L210.7,845.822l-3.3,11.939,13.433,11.325-24.06,20.263ZM149.964,905.68l6.665,5.613,16.091-13.553H149.964Zm0-16.331h32.72l24.064-20.267-10.3-8.686,3.644-13.2-16.75,2.172-9.312-7.842-24.062,20.265Zm0-68.084v28.661l24.062-20.265,12.787,10.768,15.782-2.046,2.679-8.862L176.436,805H135.614l-11.33,9.572,6.313,6.694Zm-19.39,68.084H140V870.185l-16.092,13.552Zm-36.847,0h9.427l6.665-5.612L93.726,870.184Zm0-31.031L116.864,877.8,140,858.317V829.656H125.788l-8.585-9.1-10.773,9.1h-12.7ZM77.1,911.293l6.664-5.613v-7.94H61.006ZM51.043,889.349H83.762V861.793L59.7,841.526l-10.324,8.687L33.7,847.076l2.59,14.166-9.31,7.842Zm-22.2-59.284,2.761,7.967,14.66,2.935,13.435-11.3,24.06,20.263V821.265h18.532l8.67-7.326-9.1-9.648H59.637ZM69.662,795.9H100.4l11.16-9.951-14.8-12.739Zm27.207-34.6,14.2-11.885-10.379-8.826H72.815Zm-33.8-29.1h37.843l10.277-12.21-9.229-10.142h-18.2V681.181L59.7,701.447,46.914,690.679l-15.8,2.049-2.911,9.449Zm-36.09-70.169,10.3,8.686-3.645,13.2,16.752-2.172,9.31,7.843,24.062-20.266V641.759H51.043Zm34.028-28.658H83.762v-7.94L77.1,619.816ZM77.1,607.949l6.664-5.612V594.4H61.006ZM51.043,586H83.762V558.449L59.7,538.182l-10.324,8.687L33.7,543.732l2.59,14.166-9.31,7.842Zm-22.2-59.284,2.761,7.967,14.66,2.935,13.435-11.3,24.06,20.263v-28.66h18.532l8.67-7.326-9.1-9.649H59.637Zm40.816-34.165H100.4l11.16-9.951-14.8-12.739Zm27.207-34.6,14.2-11.885-10.378-8.826H72.815Zm-33.8-29.1h37.843l10.277-12.21L101.96,406.5h-18.2V377.838L59.7,398.1,46.915,387.335l-15.8,2.049-2.911,9.448Zm-36.09-70.17,10.3,8.687-3.644,13.2,16.752-2.172,9.31,7.842,24.062-20.266V338.415H51.043Zm34.028-28.657H83.762v-7.94L77.1,316.472ZM77.1,304.6l6.664-5.612v-7.94H61.007ZM51.043,282.661H83.762V255.1L59.7,234.838l-10.324,8.688L33.7,240.387l2.59,14.166L26.98,262.4Zm-22.2-59.285,2.761,7.966,14.66,2.936,13.435-11.3,24.06,20.263v-28.66h18.532l8.67-7.326-9.1-9.649H59.637Zm40.816-34.165H100.4l11.159-9.95-14.795-12.74Zm27.206-34.6,14.2-11.885L100.686,133.9H72.815ZM83.762,18.74,77.1,13.128,61.007,26.679H83.762Zm0,16.33H51.043L26.979,55.338l10.3,8.686-3.644,13.2L50.39,75.05l9.31,7.841L83.762,62.627Zm0,68.085V74.494L59.7,94.759,46.915,83.991l-15.8,2.049-2.911,9.448,34.863,30.019h37.844L111.189,113.3l-9.229-10.143ZM103.154,35.07H93.726V54.236l16.092-13.553Zm36.847,0h-9.427l-6.665,5.612h0L140,54.236ZM140,66.1,116.864,46.616,93.726,66.1V94.763h12.9v.455l.421-.271,10.177,11.185,9.57-11.368H140Zm-8.062,37.052-8.373,9.948,11.088,12.186,37.531-.079,11.88-10.592,19.261-16.223-1.783-12.177-14.072-2.773L174.024,94.757l-24.06-20.263v28.661Zm59.321,17.269-5.336,4.758,66.3-.14.12-53.2L225.579,90.954l-13.7-2.7,1.93,13.178Zm-34.632-107.3-6.664,5.612v7.94h22.756ZM182.683,35.07h-32.72V62.627l24.064,20.266,10.314-8.677,15.672,3.069-2.578-14.108,9.31-7.841Zm60.375-22.43-12.252,6.425V35.07H196.773l24.063,20.266L208.05,66.1,210.47,79.34l12.5,2.477,29.4-21,.094-41.925Zm13.88,120.784-80.448.169-30.334,27.046,34.435,29.282h74.461L286.1,162.33Zm5.469-107.641-.063,27.91,19.68-14.055ZM297.478,39.6,319.9,55.437l.015-31.864Zm22.385,92.549.033-65.766L289.769,45.106,262.32,64.712l-.136,60.949L292.995,156.2l27.07-24.054Zm-20.379,30.487L326.3,189.211h75.562l34.273-28.688L405.208,133.9H331.826Zm30.346-37.13h65.631L363.478,97.968,366.7,87.5l-14.137,1.957L329.857,73.418Zm19.42-90.436V19.848L337.24,12.43l-.039.04-.38-.261-6.937,4.858-.022,45.4,25.6,18.081,13.886-1.923,3.305-11.97L359.222,55.334,383.283,35.07Zm80.842-16.33-6.665-5.612L407.337,26.679h22.756Zm0,16.33h-32.72L373.309,55.338l10.3,8.686-3.644,13.2,16.751-2.172,9.311,7.841,24.063-20.264Zm0,68.085V74.493L406.029,94.759,393.244,83.991l-15.8,2.049-2.911,9.448L409.4,125.506h37.843l10.278-12.21-9.229-10.142Zm26.055-62.472-6.665-5.612h-9.427V54.236l16.092-13.553ZM486.33,35.07H476.9l-6.665,5.613L486.33,54.236Zm0,31.032L463.192,46.616,440.056,66.1V94.763h12.9v.455l.421-.271,10.177,11.185,9.569-11.368H486.33Zm-8.062,37.052-8.374,9.948,11.088,12.186,37.532-.079,11.879-10.592,19.262-16.223-1.783-12.177L533.8,83.444,520.354,94.757l-24.06-20.263v28.661Zm59.321,17.268-5.337,4.759,66.3-.14.119-53.2L571.907,90.954l-13.7-2.7,1.93,13.178ZM502.958,13.128l-6.664,5.612v7.94h22.755ZM529.013,35.07H496.294V62.627l24.064,20.266,10.313-8.677,15.673,3.069-2.579-14.108,9.311-7.841Zm60.375-22.43-12.253,6.425V35.07H543.1l24.063,20.266L554.381,66.1,556.8,79.34l12.5,2.477,29.4-21,.095-41.925Zm13.88,120.784-80.449.169-30.333,27.046L526.92,189.92h74.46l31.05-27.591Zm5.468-107.641-.062,27.91,19.679-14.056ZM643.808,39.6l22.424,15.837.015-31.864Zm22.385,92.549.033-65.766L636.1,45.106,608.649,64.712l-.138,60.949L639.324,156.2l27.07-24.054Zm-20.38,30.487,26.812,26.575h75.562l34.274-28.688L751.537,133.9H678.155Zm30.347-37.13h65.631L709.807,97.968,713.033,87.5,698.9,89.456,676.187,73.418ZM695.58,35.07V19.848L683.569,12.43l-.038.04-.381-.261-6.937,4.858-.022,45.4,25.6,18.081,13.886-1.923,3.305-11.97L705.551,55.334l24.06-20.264Zm80.841-16.33-6.664-5.612L753.667,26.679h22.755Zm0,16.33H743.7L719.638,55.338l10.3,8.686-3.645,13.2,16.751-2.172,9.311,7.841,24.062-20.264Zm0,68.085V74.494L752.359,94.759,739.573,83.991l-15.8,2.049-2.911,9.448,34.863,30.019H793.57L803.848,113.3l-9.229-10.143ZM795.813,35.07h-9.427V54.236l16.092-13.553Zm36.846,0h-9.426l-6.665,5.612h0l16.091,13.553Zm0,31.032L809.523,46.616,786.385,66.1V94.763h12.9v.455l.421-.271,10.177,11.185,9.57-11.368h13.209ZM824.6,103.155l-8.373,9.948,11.087,12.186,37.532-.079,11.88-10.592,19.26-16.223L894.2,86.217,880.13,83.444,866.684,94.757,842.622,74.494v28.661Zm59.321,17.269-5.336,4.758,66.3-.14.12-53.2L918.238,90.954l-13.7-2.7,1.93,13.178Zm-34.632-107.3-6.664,5.612v7.94h22.756ZM875.341,35.07H842.622V62.627l24.065,20.266L877,74.216l15.672,3.069-2.579-14.108,9.311-7.841Zm60.376-22.43-12.252,6.425V35.07H889.432l24.062,20.266L900.71,66.1l2.419,13.237,12.5,2.477,29.4-21,.095-41.924ZM949.6,133.424l-80.448.169-30.334,27.046L873.25,189.92H947.71l31.05-27.591Zm5.468-107.641L955,53.693l19.68-14.056ZM990.137,39.6l22.424,15.837.015-31.864Zm22.385,92.549.032-65.765L982.428,45.106,954.979,64.712l-.137,60.95L985.654,156.2l27.07-24.055Zm-20.38,30.487,26.812,26.575h75.563l34.273-28.688L1097.866,133.9h-73.381Zm30.347-37.13h65.631l-31.984-27.538,3.225-10.469-14.136,1.957-22.709-16.038Zm19.421-90.436V19.848L1029.9,12.43l-.039.04-.38-.261-6.937,4.858-.022,45.4,25.6,18.08,13.887-1.923,3.305-11.97-13.433-11.325,24.061-20.264Zm80.84-16.33-6.664-5.612L1100,26.679h22.755Zm0,16.33h-32.719l-24.064,20.268,10.3,8.686-3.645,13.2,16.751-2.172,9.311,7.841,24.062-20.264Zm0,68.085V74.494l-24.062,20.265L1085.9,83.991l-15.8,2.049-2.91,9.448,34.863,30.019H1139.9l10.278-12.21-9.229-10.142Zm19.392-68.085h-9.428V54.236l16.092-13.553Zm36.846,0h-9.427l-6.664,5.613,16.091,13.552Zm0,31.032-23.137-19.486L1132.715,66.1V94.763h12.9v.455l.42-.272,10.177,11.184,9.569-11.367h13.211Zm-8.061,37.052-8.374,9.949,11.087,12.185,37.532-.079,11.88-10.592,19.26-16.223-1.783-12.177-14.071-2.773-13.447,11.313-24.06-20.263v28.661Zm59.32,17.269-5.337,4.758,66.3-.14.119-53.2-26.762,19.114-13.7-2.7,1.93,13.178Zm-34.631-107.3-6.664,5.612v7.94h22.755Zm26.055,21.942h-32.719V62.627l24.064,20.266,10.313-8.677L1239,77.285l-2.579-14.108,9.312-7.841Zm60.375-22.43-12.252,6.425V35.07h-34.031l24.062,20.266L1247.038,66.1l2.42,13.237,12.5,2.477,29.4-21,.095-41.924Zm13.881,120.784-80.45.169-30.333,27.046,34.434,29.282h74.46l31.051-27.591Zm5.467-107.642-.063,27.911,19.68-14.057ZM1336.467,39.6l22.424,15.837.015-31.863Zm22.385,92.549.033-65.766-30.127-21.277-27.45,19.606-.136,60.949,30.813,30.542,27.07-24.054Zm-20.379,30.486,26.811,26.576h75.563l34.272-28.688L1444.2,133.9h-73.382Zm30.346-37.129h65.63l-31.984-27.538,3.226-10.469-14.136,1.957-22.71-16.039ZM1388.24,35.07V19.848l-12.012-7.417-.039.04-.38-.261-6.937,4.858-.022,45.4,25.6,18.081,13.887-1.923,3.305-11.97L1398.21,55.334l24.061-20.264Zm80.841-16.33-6.664-5.612-16.092,13.552h22.756Zm0,16.33h-32.72L1412.3,55.338l10.3,8.686-3.645,13.2,16.751-2.172,9.311,7.841,24.062-20.264Zm0,68.085V74.494l-24.062,20.265-12.786-10.768-15.8,2.049-2.911,9.448,34.863,30.019h37.843l10.278-12.21-9.229-10.142Zm19.392-68.085h-9.428V54.236l16.091-13.553Zm36.846,0h-9.427l-6.665,5.613,16.092,13.552Zm0,31.032-23.136-19.486L1479.045,66.1V94.763h12.9v.455l.421-.272,10.178,11.185,9.568-11.367h13.211Zm-8.061,37.052-8.375,9.948,11.088,12.186,37.531-.079,11.881-10.592,19.261-16.223-1.783-12.177-14.072-2.773-13.448,11.313-24.06-20.263v28.661Zm59.32,17.269-5.337,4.758,66.3-.14.12-53.2L1610.9,90.954l-13.7-2.7,1.931,13.178Zm-34.632-107.3-6.664,5.612v7.94h22.756ZM1568,35.07h-32.72V62.627l24.064,20.266,10.314-8.677,15.672,3.069-2.579-14.108,9.31-7.841Zm60.375-22.43-12.253,6.425V35.07h-34.03l24.062,20.266L1593.369,66.1l2.419,13.237,12.5,2.477,29.4-21,.094-41.925Zm13.881,120.784-80.45.169-30.333,27.046,34.435,29.282h74.46l31.051-27.591Zm5.467-107.642-.063,27.911,19.681-14.057ZM1682.8,39.6l22.423,15.837.016-31.862Zm22.385,92.549.033-65.766-30.127-21.277-27.45,19.606-.136,60.949,30.812,30.542,27.07-24.054Zm-20.38,30.486,26.812,26.576h75.563l34.274-28.688L1790.526,133.9h-73.383Zm30.347-37.129h65.631L1748.8,97.968l3.225-10.469-14.137,1.957-22.71-16.039Zm19.42-90.436V19.848l-12.011-7.417-.039.04-.381-.261-6.936,4.858-.022,45.4,25.6,18.081,13.886-1.923,3.305-11.97L1744.54,55.334,1768.6,35.07Zm80.842-16.33-6.664-5.612-16.092,13.552h22.756Zm0,16.33h-32.72l-24.064,20.268,10.3,8.686-3.645,13.2,16.752-2.172,9.31,7.841,24.063-20.264Zm0,68.085V74.494l-24.063,20.265-12.785-10.768-15.8,2.049-2.91,9.448,34.863,30.019h37.842l10.278-12.21-9.229-10.142ZM1834.8,35.07h-9.427V54.236l16.091-13.553Zm36.847,0h-9.428l-6.664,5.613,16.092,13.553Zm0,31.032L1848.51,46.617,1825.374,66.1V94.763h12.9v.455l.422-.272,10.176,11.184,9.569-11.367h13.211Zm16.628-52.975-6.664,5.612v7.94h22.755Zm26.055,21.942h-32.719V62.627l24.064,20.266,10.312-8.677,15.672,3.069-2.579-14.108,9.311-7.841Zm1.382,79.547,19.26-16.223-1.782-12.177-14.072-2.773-13.446,11.313-24.06-20.263v28.661h-18.025l-8.375,9.948,11.088,12.186,37.532-.079Zm-21.313,19-26.744.056-10.864,9.094,14,11.9Zm-23.441,33.121-13.927,12.418,12.5,10.76h28.688Zm37.126,31.57h-40.823l-11.33,9.572,6.314,6.694h19.367v28.661l24.062-20.266,12.786,10.768,15.783-2.046,2.679-8.861Zm30.31,64.081-10.3-8.685,3.646-13.2-16.751,2.172-9.312-7.842L1881.612,255.1v27.556h32.718Zm-34.028,28.659h-22.755v7.94l6.664,5.612Zm-16.091,25.419-6.664,5.612v7.94h22.755Zm26.055,21.943h-32.719v27.556l24.064,20.267,10.312-8.677,15.672,3.069-2.579-14.108,9.311-7.842Zm1.382,79.547,19.26-16.223-1.782-12.177-14.072-2.774L1905.672,398.1l-24.06-20.263V406.5h-18.025l-8.375,9.948,11.088,12.186,37.532-.079Zm-21.313,19-26.744.056-10.863,9.094,14,11.9Zm-23.441,33.121L1857.031,482.5l12.5,10.76h28.687Zm37.125,31.569h-40.822l-11.33,9.573,6.314,6.694h19.367v28.66l24.062-20.265,12.786,10.768,15.783-2.046,2.679-8.861Zm30.312,64.082-10.3-8.686,3.646-13.2-16.751,2.172-9.312-7.842-24.062,20.265V586h32.719ZM1904.368,594.4h-22.756v7.94l6.664,5.612Zm-16.092,25.42-6.664,5.612v7.94h22.755Zm26.055,21.943h-32.719v27.556l24.064,20.268,10.312-8.678,15.672,3.069-2.579-14.108,9.311-7.841Zm1.382,79.547,19.26-16.224-1.782-12.176-14.072-2.774-13.446,11.313-24.06-20.264v28.662h-18.025l-8.375,9.948,11.088,12.186,37.532-.079Zm-21.313,19-26.744.056-10.863,9.093,14,11.9Zm-23.441,33.12-13.927,12.419,12.5,10.759h28.688ZM1908.085,805h-40.823l-11.33,9.572,6.314,6.694h19.367v28.661l24.062-20.265,12.786,10.768,15.782-2.046,2.68-8.862Zm30.31,64.082-10.3-8.686,3.646-13.2-16.751,2.172-9.312-7.842-24.062,20.265v27.556h32.719Z" transform="translate(-1.418 -1.412)" fill="url(#linear-gradient-3)"/>
      </g>
    </g>
  </g>
</svg>
